<?xml version="1.0" standalone="no"?>
<!DOCTYPE svg PUBLIC "-//W3C//DTD SVG 20010904//EN"
 "http://www.w3.org/TR/2001/REC-SVG-20010904/DTD/svg10.dtd">
<svg version="1.0" xmlns="http://www.w3.org/2000/svg"
 width="700.000000pt" height="700.000000pt" viewBox="0 0 700.000000 700.000000"
 preserveAspectRatio="xMidYMid meet">
<metadata>
Created by potrace 1.14, written by Peter Selinger 2001-2017
</metadata>
<g transform="translate(0.000000,700.000000) scale(0.100000,-0.100000)"
fill="#000000" stroke="none">
<path d="M4705 6970 c-260 -53 -463 -134 -650 -257 -123 -82 -281 -237 -350
-346 -84 -131 -75 -126 -112 -75 -17 24 -57 69 -89 102 -210 210 -481 325
-755 322 -121 -2 -169 -20 -240 -89 -143 -140 -118 -380 49 -485 58 -37 99
-49 182 -56 91 -7 116 -13 188 -46 83 -39 172 -128 212 -212 17 -35 30 -68 30
-75 0 -6 -15 -14 -32 -18 -66 -13 -215 -68 -308 -112 -164 -78 -284 -165 -425
-307 -196 -197 -333 -440 -399 -706 -39 -158 -42 -193 -51 -455 -3 -82 -7
-157 -10 -165 -2 -8 -6 -33 -10 -55 -25 -170 -73 -289 -228 -565 -131 -232
-201 -388 -248 -552 -46 -160 -61 -243 -84 -468 -5 -51 -6 -349 -1 -390 3 -19
7 -62 11 -95 3 -33 8 -69 10 -80 3 -11 7 -31 9 -45 34 -211 159 -536 275 -715
14 -22 31 -47 36 -56 66 -104 96 -124 165 -106 22 5 37 -6 119 -94 83 -89 93
-103 83 -120 -15 -24 -15 -61 0 -94 27 -59 281 -236 483 -335 309 -153 606
-219 960 -215 192 3 212 4 365 31 717 126 1350 656 1608 1349 92 247 133 466
136 734 5 418 -71 747 -251 1091 -36 69 -69 130 -73 135 -4 6 -22 36 -39 68
-175 318 -217 466 -226 802 -7 279 -51 474 -155 690 -75 155 -210 344 -307
429 -13 11 -23 22 -23 26 0 3 37 31 82 61 165 108 391 367 391 446 0 19 -9 47
-22 64 l-23 31 27 61 c47 107 53 121 65 159 8 25 17 37 28 36 89 -7 111 31
151 256 37 204 10 322 -97 424 -106 101 -224 119 -457 72z"/>
</g>
</svg>
